HIERARCHY
ROOT Hips
{
	OFFSET 0.00000 0.00000 0.00000
	CHANNELS 6 Xposition Yposition Zposition Zrotation Yrotation Xrotation 
	JOINT LHipJoint
	{
		OFFSET 0 0 0
		CHANNELS 3 Zrotation Yrotation Xrotation
		JOINT LeftUpLeg
		{
			OFFSET 1.36337 -1.57426 1.11036
			CHANNELS 3 Zrotation Yrotation Xrotation
			JOINT LeftLeg
			{
				OFFSET 2.38468 -6.55187 0.00000
				CHANNELS 3 Zrotation Yrotation Xrotation
				JOINT LeftFoot
				{
					OFFSET 2.37166 -6.51609 0.00000
					CHANNELS 3 Zrotation Yrotation Xrotation
					JOINT LeftToeBase
					{
						OFFSET 0.29078 -0.79891 2.01393
						CHANNELS 3 Zrotation Yrotation Xrotation
						End Site
						{
							OFFSET 0.00000 -0.00000 1.07924
						}
					}
				}
			}
		}
	}
	JOINT RHipJoint
	{
		OFFSET 0 0 0
		CHANNELS 3 Zrotation Yrotation Xrotation
		JOINT RightUpLeg
		{
			OFFSET -1.36349 -1.57426 1.11036
			CHANNELS 3 Zrotation Yrotation Xrotation
			JOINT RightLeg
			{
				OFFSET -2.29562 -6.30717 0.00000
				CHANNELS 3 Zrotation Yrotation Xrotation
				JOINT RightFoot
				{
					OFFSET -2.40985 -6.62100 0.00000
					CHANNELS 3 Zrotation Yrotation Xrotation
					JOINT RightToeBase
					{
						OFFSET -0.23197 -0.63733 1.92232
						CHANNELS 3 Zrotation Yrotation Xrotation
						End Site
						{
							OFFSET -0.00000 -0.00000 1.01562
						}
					}
				}
			}
		}
	}
	JOINT LowerBack
	{
		OFFSET 0 0 0
		CHANNELS 3 Zrotation Yrotation Xrotation
		JOINT Spine
		{
			OFFSET -0.08565 2.03602 -0.24562
			CHANNELS 3 Zrotation Yrotation Xrotation
			JOINT Spine1
			{
				OFFSET -0.00036 2.05693 0.00216
				CHANNELS 3 Zrotation Yrotation Xrotation
				JOINT Neck
				{
					OFFSET 0 0 0
					CHANNELS 3 Zrotation Yrotation Xrotation
					JOINT Neck1
					{
						OFFSET -0.03664 1.69515 0.31789
						CHANNELS 3 Zrotation Yrotation Xrotation
						JOINT Head
						{
							OFFSET 0.00932 1.70181 -0.46013
							CHANNELS 3 Zrotation Yrotation Xrotation
							End Site
							{
								OFFSET 0.01243 1.77620 -0.19377
							}
						}
					}
				}
				JOINT LeftShoulder
				{
					OFFSET 0 0 0
					CHANNELS 3 Zrotation Yrotation Xrotation
					JOINT LeftArm
					{
						OFFSET 3.74344 0.81315 -0.36647
						CHANNELS 3 Zrotation Yrotation Xrotation
						JOINT LeftForeArm
						{
							OFFSET 4.97185 -0.00000 -0.00000
							CHANNELS 3 Zrotation Yrotation Xrotation
							JOINT LeftHand
							{
								OFFSET 3.35811 -0.00000 0.00000
								CHANNELS 3 Zrotation Yrotation Xrotation
								JOINT LeftFingerBase
								{
									OFFSET 0 0 0
									CHANNELS 3 Zrotation Yrotation Xrotation
									JOINT LeftHandIndex1
									{
										OFFSET 0.62278 -0.00000 0.00000
										CHANNELS 3 Zrotation Yrotation Xrotation
										End Site
										{
											OFFSET 0.50210 -0.00000 0.00000
										}
									}
								}
								JOINT LThumb
								{
									OFFSET 0 0 0
									CHANNELS 3 Zrotation Yrotation Xrotation
									End Site
									{
										OFFSET 0.50976 -0.00000 0.50976
									}
								}
							}
						}
					}
				}
				JOINT RightShoulder
				{
					OFFSET 0 0 0
					CHANNELS 3 Zrotation Yrotation Xrotation
					JOINT RightArm
					{
						OFFSET -3.75385 0.50666 -0.06525
						CHANNELS 3 Zrotation Yrotation Xrotation
						JOINT RightForeArm
						{
							OFFSET -4.96493 -0.00000 -0.00000
							CHANNELS 3 Zrotation Yrotation Xrotation
							JOINT RightHand
							{
								OFFSET -3.34929 -0.00000 0.00000
								CHANNELS 3 Zrotation Yrotation Xrotation
								JOINT RightFingerBase
								{
									OFFSET 0 0 0
									CHANNELS 3 Zrotation Yrotation Xrotation
									JOINT RightHandIndex1
									{
										OFFSET -0.63804 -0.00000 0.00000
										CHANNELS 3 Zrotation Yrotation Xrotation
										End Site
										{
											OFFSET -0.51441 -0.00000 0.00000
										}
									}
								}
								JOINT RThumb
								{
									OFFSET 0 0 0
									CHANNELS 3 Zrotation Yrotation Xrotation
									End Site
									{
										OFFSET -0.52226 -0.00000 0.52226
									}
								}
							}
						}
					}
				}
			}
		}
	}
}
MOTION
Frames: 11
Frame Time: .0083333
11.8927 16.3522 0.9117 0 0 0 0 0 0 -21 0 0 0 0 0 0 0 0 0 0 0 0 0 0 21 0 0 0 0 0 0 0 0 0 0 0 0 0 0 0 0 0 0 0 0 0 0 -16 0 0 21 0 0 11 0 0 0 -8 0 0 0 0 0 0 0 0 0 0 0 0 0 0 0 0 0 0 0 0 8 0 0 0 0 0 0 0 0 0 0 0 0 0 0 0 0 0
11.8927 16.3522 0.9117 -160.9470 -81.3711 171.0130 0.0000 0.0000 0.0000 -4.2584 1.6948 -32.5385 4.3827 12.6530 38.0830 -0.0395 7.4868 -9.7508 0.6144 5.0166 13.9560 0.0000 0.0000 0.0000 10.0768 -3.7198 -28.7624 -1.7481 -8.3205 23.6917 -0.2550 -4.2480 -12.0661 -0.6462 -5.1426 14.3157 -0.3744 0.7336 23.1687 0.1667 0.4830 4.9513 0.2782 0.0736 -7.4812 -12.8590 -8.1261 -19.1086 4.7695 -8.8950 22.7988 2.4321 -4.6198 11.4072 0.0000 -0.0000 0.0000 -75.8737 -15.4784 20.9732 25.2944 -36.5034 -8.4644 -0.0000 -0.0000 14.8232 -12.1603 -15.5852 3.3134 -7.1250 0.0000 -0.0000 -25.9608 14.9125 20.6874 0.0000 -0.0000 0.0000 85.3434 7.7148 28.2509 -26.9749 38.1553 -9.4836 0.0000 -0.0000 -13.5157 -8.8505 -27.8873 4.1655 7.1250 -0.0000 -0.0000 23.4791 -56.5658 -6.9222
12.0162 16.3786 0.7450 -161.4690 -83.5987 173.3510 0.0000 0.0000 0.0000 -3.7131 0.1249 -35.1276 4.4995 12.7970 38.6131 0.4524 4.2872 -15.0055 0.1401 -2.4122 -6.6463 0.0000 0.0000 0.0000 9.9931 -3.7584 -31.6945 -2.1072 -9.0858 26.0641 -0.4357 -2.2820 -13.5115 -0.0202 -0.9177 2.5223 -0.8954 0.0447 21.4144 0.3941 -0.4585 4.9666 1.0748 -0.3557 -6.5372 -12.9184 -8.2896 -19.1564 5.6674 -9.1648 20.6103 2.7264 -4.5920 10.6754 -0.0000 0.0000 0.0000 -76.1296 -15.6957 25.5293 25.8337 -37.0440 -8.7873 -0.0000 -0.0000 4.8600 -0.9703 -9.0411 0.1525 -7.1250 0.0000 -0.0000 -19.7723 21.1030 12.0516 -0.0000 0.0000 0.0000 85.5114 8.9180 28.4256 -26.9440 38.1257 -9.4645 0.0000 -0.0000 -13.6688 -10.0343 -27.7201 4.7052 7.1250 -0.0000 -0.0000 22.1838 -56.6543 -6.5609
12.0673 16.3620 0.6127 -164.5220 -84.5613 177.2050 0.0000 0.0000 0.0000 -3.7506 -0.1927 -36.3333 4.4450 12.7301 38.3662 0.3992 3.9287 -14.0319 0.1942 -2.8382 -7.8286 0.0000 0.0000 0.0000 9.8490 -3.8087 -33.3558 -2.3857 -9.6270 27.7772 -0.5708 0.3373 -14.1630 -0.2469 3.1974 -8.8289 -1.1609 -0.3229 20.1159 0.4831 -0.9705 5.2823 1.4281 -0.6105 -5.4983 -12.7639 -8.5691 -20.2086 5.8610 -9.4511 20.1393 2.6932 -4.6514 10.7264 0.0000 0.0000 0.0000 -76.4752 -15.8807 29.3703 26.4936 -37.6920 -9.1878 -0.0000 0.0000 -4.9173 9.3522 -5.8553 -0.9626 -7.1250 0.0000 -0.0000 -12.8228 24.0560 6.6431 0.0000 0.0000 0.0000 85.5298 10.0917 28.7619 -26.8050 37.9926 -9.3788 0.0000 -0.0000 -13.8081 -10.9693 -27.4098 5.0989 7.1250 -0.0000 -0.0000 21.0396 -56.5581 -6.1509
12.0796 16.3454 0.5047 -168.5910 -84.9535 181.2540 0.0000 0.0000 0.0000 -3.8549 -0.2349 -36.3246 4.4018 12.6767 38.1699 0.3841 3.7522 -13.6944 0.2238 -3.0451 -8.4044 0.0000 0.0000 0.0000 9.4339 -3.7769 -33.5099 -2.5414 -9.9128 28.6948 -0.4553 -1.4145 -13.3374 -0.5323 4.6752 -12.9844 -1.4670 -0.5901 18.3892 0.5923 -1.4112 6.5290 1.7598 -0.8871 -3.2383 -12.7782 -8.4821 -20.5984 6.4708 -9.2776 18.1968 2.9361 -4.4685 10.1064 0.0000 -0.0000 0.0000 -76.8419 -16.6267 34.9999 27.8828 -39.0081 -10.0498 -0.0000 0.0000 -23.5316 26.6010 -7.8710 -3.9232 -7.1250 0.0000 -0.0000 -0.1714 21.1907 0.0979 0.0000 -0.0000 0.0000 85.3042 12.4470 29.5056 -26.4170 37.6175 -9.1410 0.0000 -0.0000 -14.0308 -10.2328 -27.6725 4.7923 7.1250 -0.0000 -0.0000 21.9530 -56.6511 -6.4861
12.0914 16.3396 0.3976 -171.2430 -85.3242 183.8870 0.0000 0.0000 0.0000 -3.7982 -0.1836 -36.2066 4.3047 12.5552 37.7254 0.3604 3.5978 -13.2427 0.2372 -3.1341 -8.6524 0.0000 0.0000 0.0000 9.3429 -3.9560 -33.5079 -2.6696 -10.1400 29.4314 -0.2606 -4.6208 -12.4643 -0.9956 6.3502 -17.8040 -1.3047 -0.8098 19.1601 0.6815 -1.6357 5.8866 1.8430 -0.9635 -4.3184 -12.5751 -8.6950 -21.1171 5.9057 -9.4958 19.2287 2.6477 -4.6173 10.5537 -0.0000 -0.0000 0.0000 -77.5890 -15.4560 35.9690 27.7390 -38.8748 -9.9594 -0.0000 0.0000 -23.4551 27.1662 -9.7168 -4.9503 -7.1250 0.0000 -0.0000 0.1302 19.0855 -0.0805 -0.0000 -0.0000 0.0000 84.9968 11.5709 30.0676 -26.3345 37.5372 -9.0907 0.0000 -0.0000 -14.4374 -9.8397 -27.6329 4.5992 7.1250 -0.0000 -0.0000 22.3197 -56.5343 -6.5380
11.9203 16.3547 0.3651 -169.4520 -82.5937 179.3380 0.0000 0.0000 0.0000 -3.4971 1.4475 -31.6235 4.2073 12.4313 37.2754 0.4597 4.2614 -15.0829 0.2418 -3.1646 -8.7373 0.0000 0.0000 0.0000 9.5975 -3.5936 -30.3393 -2.7131 -10.2155 29.6773 -0.0906 -7.0291 -11.9151 -0.4218 4.1683 -11.5505 -0.4836 -0.1750 21.8360 0.5793 -0.7159 5.7135 1.1076 -0.5219 -5.9406 -12.6607 -8.4733 -20.6522 5.4643 -9.1805 20.0401 2.5675 -4.5570 10.7171 0.0000 0.0000 0.0000 -78.5311 -13.3060 36.8522 27.4946 -38.6468 -9.8064 -0.0000 0.0000 -22.3924 28.0512 -12.7560 -6.7103 -7.1250 0.0000 -0.0000 0.5213 15.5928 -0.3620 0.0000 0.0000 0.0000 84.5243 9.7876 30.8752 -26.3503 37.5525 -9.1003 0.0000 -0.0000 -14.4363 -9.4897 -28.0223 4.4904 7.1250 -0.0000 -0.0000 22.9354 -56.8200 -6.8932
11.9194 16.3474 0.2666 -171.1790 -82.6788 180.8940 0.0000 0.0000 0.0000 -3.4606 1.6680 -31.3235 4.1165 12.3139 36.8516 0.4534 3.9284 -14.7706 0.3369 -3.7300 -10.3184 0.0000 0.0000 0.0000 9.7459 -3.8296 -30.4393 -2.8001 -10.3642 30.1643 -0.1320 -6.6799 -12.2678 -0.3276 3.6788 -10.1747 -0.1710 -0.3156 22.1368 0.4936 -0.8304 5.5849 0.8732 -0.5756 -6.2384 -12.7198 -8.6172 -20.7387 5.7486 -9.4198 20.0242 2.6355 -4.6336 10.7691 -0.0000 0.0000 0.0000 -78.9285 -13.0175 37.9508 26.9703 -38.1509 -9.4808 -0.0000 0.0000 -21.6075 27.7774 -9.4116 -4.9230 -7.1250 0.0000 -0.0000 0.5841 19.3689 -0.3573 -0.0000 0.0000 0.0000 84.5526 9.8516 31.2331 -25.7961 37.0067 -8.7646 0.0000 -0.0000 -14.7839 -10.6501 -27.0932 4.8952 7.1250 -0.0000 -0.0000 21.1539 -56.1990 -5.9995
11.9279 16.3399 0.1723 -174.2630 -82.9559 183.8580 0.0000 0.0000 0.0000 -3.6046 1.7033 -31.1074 4.0318 12.2026 36.4526 0.4478 3.6619 -14.5168 0.4129 -4.1247 -11.4276 0.0000 0.0000 0.0000 9.6944 -4.2308 -30.6084 -2.8733 -10.4871 30.5689 -0.1710 -6.3503 -12.5911 -0.2860 3.4392 -9.5040 -0.0145 -0.5058 22.4557 0.3971 -1.0403 5.4343 0.7437 -0.6732 -6.5683 -12.6445 -8.7596 -20.9458 5.8208 -9.6365 20.1134 2.6054 -4.7131 10.8612 0.0000 0.0000 0.0000 -79.4634 -12.7890 39.1796 26.3427 -37.5451 -9.0957 -0.0000 0.0000 -21.2214 27.4074 -10.5356 -5.4159 -7.1250 0.0000 -0.0000 0.2462 18.1477 -0.1573 0.0000 0.0000 0.0000 84.5473 9.8677 31.4577 -25.3820 36.5919 -8.5166 0.0000 -0.0000 -14.8299 -11.3138 -26.5144 5.1039 7.1250 -0.0000 -0.0000 20.1257 -55.7911 -5.4882
11.9402 16.3307 0.0798 -176.0320 -83.2662 185.6020 0.0000 0.0000 0.0000 -3.5270 1.7479 -31.0169 3.9486 12.0917 36.0571 0.4254 3.5494 -14.1381 0.4261 -4.1894 -11.6100 0.0000 0.0000 0.0000 9.7784 -4.4474 -31.1010 -3.0559 -10.7849 31.5580 -0.2280 -6.0166 -13.1966 -0.2681 3.3308 -9.2012 0.1885 -0.6731 22.6231 0.4261 -1.2001 5.3202 0.7080 -0.7484 -6.7806 -12.6328 -8.9276 -21.1917 5.9697 -9.8758 20.1073 2.6076 -4.7957 10.9357 0.0000 -0.0000 0.0000 -80.2348 -12.6385 40.3850 25.6499 -36.8609 -8.6768 -0.0000 0.0000 -20.2110 27.2652 -11.4902 -5.8616 -7.1250 0.0000 -0.0000 0.0786 17.0988 -0.0520 0.0000 -0.0000 0.0000 84.4139 9.9060 31.4554 -25.0348 36.2396 -8.3105 0.0000 -0.0000 -14.6846 -10.5210 -27.1377 4.8420 7.1250 -0.0000 -0.0000 21.3118 -56.2144 -6.0554
11.9453 16.3223 -0.0088 -175.5420 -83.5312 185.1570 0.0000 0.0000 0.0000 -3.1502 1.7987 -30.9544 3.8677 11.9823 35.6693 0.3902 3.6930 -13.7414 0.3914 -4.0173 -11.1252 0.0000 0.0000 0.0000 10.1466 -4.5644 -31.5618 -3.2313 -11.0605 32.4841 -0.2768 -5.7219 -13.6794 -0.2446 3.1823 -8.7868 0.5453 -0.8431 22.6840 0.5927 -1.3127 5.1670 0.7198 -0.8016 -6.9814 -13.0496 -8.9812 -20.4735 6.4780 -10.0117 19.5036 2.8548 -4.8408 10.6507 0.0000 0.0000 0.0000 -81.2422 -12.3436 41.4498 24.8059 -36.0050 -8.1755 -0.0000 0.0000 -18.4836 27.4086 -11.4936 -5.8991 -7.1250 0.0000 -0.0000 0.1781 17.0789 -0.1180 0.0000 0.0000 0.0000 84.1276 9.9541 31.9061 -24.4345 35.6204 -7.9582 0.0000 -0.0000 -15.6625 -11.5733 -27.2283 5.3528 7.1250 -0.0000 -0.0000 20.3144 -56.5120 -5.9031
